<svg viewBox="0 0 360 150" width="100%" height="100%" preserveAspectRatio="xMidYMid meet" xmlns="http://www.w3.org/2000/svg" role="img" aria-label="Generating logo"><style>@keyframes shfg{0%{opacity:0}8%{opacity:1}85%{opacity:1}95%,100%{opacity:0}}@keyframes shrot{from{transform:rotate(0)}to{transform:rotate(16deg)}}@keyframes shfill{0%,60%{fill-opacity:0}72%,100%{fill-opacity:.85}}@keyframes shglow{0%,60%{opacity:0}72%,100%{opacity:.9}}@keyframes shb1{0%,100%{transform:translate(0,0)}50%{transform:translate(58px,27px)}}@keyframes shb2{0%,100%{transform:translate(0,0)}50%{transform:translate(-58px,-24px)}}@keyframes shb3{0%,100%{transform:translate(0,0)}50%{transform:translate(-43px,27px)}}@keyframes shdraw0{0%,8%{stroke-dashoffset:100}16%,100%{stroke-dashoffset:0}}@keyframes shdraw1{0%,14%{stroke-dashoffset:100}22%,100%{stroke-dashoffset:0}}@keyframes shdraw2{0%,20%{stroke-dashoffset:100}28%,100%{stroke-dashoffset:0}}@keyframes shdraw3{0%,26%{stroke-dashoffset:100}34%,100%{stroke-dashoffset:0}}@keyframes shtype0{0%,42%{transform:scaleX(0)}56%,100%{transform:scaleX(1)}}@keyframes shtype1{0%,50%{transform:scaleX(0)}60%,100%{transform:scaleX(1)}}@keyframes shtype2{0%,54%{transform:scaleX(0)}64%,100%{transform:scaleX(1)}}@keyframes shcol0{0%,62%{fill-opacity:0}72%,100%{fill-opacity:.92}}@keyframes shcol1{0%,66%{fill-opacity:0}76%,100%{fill-opacity:.92}}@keyframes shcol2{0%,68%{fill-opacity:0}78%,100%{fill-opacity:.92}}.shfg{animation:shfg 5.4s linear infinite}.shrot{animation:shrot 5.4s cubic-bezier(.4,0,.2,1) infinite;transform-origin:82px 75px}.shglow{animation:shglow 5.4s linear infinite}.shfl{animation:shfill 5.4s linear infinite}.shb1{animation:shb1 6.8s ease-in-out infinite}.shb2{animation:shb2 7.8s ease-in-out infinite}.shb3{animation:shb3 9s ease-in-out infinite}.shd0{animation:shdraw0 5.4s linear infinite}.shd1{animation:shdraw1 5.4s linear infinite}.shd2{animation:shdraw2 5.4s linear infinite}.shd3{animation:shdraw3 5.4s linear infinite}.sht0{animation:shtype0 5.4s cubic-bezier(.4,0,.2,1) infinite;transform-origin:150px 69px}.shc0{animation:shcol0 5.4s linear infinite}.sht1{animation:shtype1 5.4s cubic-bezier(.4,0,.2,1) infinite;transform-origin:150px 96.5px}.shc1{animation:shcol1 5.4s linear infinite}.sht2{animation:shtype2 5.4s cubic-bezier(.4,0,.2,1) infinite;transform-origin:244px 96.5px}.shc2{animation:shcol2 5.4s linear infinite}@media(prefers-reduced-motion:reduce){.shfg,.shrot,.shglow,.shfl,.shb1,.shb2,.shb3,.shd0,.shd1,.shd2,.shd3,.sht0,.shc0,.sht1,.shc1,.sht2,.shc2{animation:none!important}.shfg{opacity:1}.shrot{transform:none}.shglow{opacity:.9}.shfl{fill-opacity:.85}.shd0{stroke-dashoffset:0}.shd1{stroke-dashoffset:0}.shd2{stroke-dashoffset:0}.shd3{stroke-dashoffset:0}.sht0{transform:scaleX(1)}.shc0{fill-opacity:.92}.sht1{transform:scaleX(1)}.shc1{fill-opacity:.92}.sht2{transform:scaleX(1)}.shc2{fill-opacity:.92}}</style><defs><clipPath id="shcp"><rect width="360" height="150" rx="24"/></clipPath><radialGradient id="shbase" cx="50%" cy="40%" r="80%"><stop offset="0%" stop-color="#161a30"/><stop offset="100%" stop-color="#0a0c16"/></radialGradient><radialGradient id="shq1"><stop offset="0%" stop-color="#8b5cf6" stop-opacity="0.9"/><stop offset="100%" stop-color="#8b5cf6" stop-opacity="0"/></radialGradient><radialGradient id="shq2"><stop offset="0%" stop-color="#2563eb" stop-opacity="0.8"/><stop offset="100%" stop-color="#2563eb" stop-opacity="0"/></radialGradient><radialGradient id="shq3"><stop offset="0%" stop-color="#22d3ee" stop-opacity="0.6"/><stop offset="100%" stop-color="#22d3ee" stop-opacity="0"/></radialGradient><linearGradient id="shpetal" x1="0" y1="0" x2="1" y2="1"><stop offset="0%" stop-color="#a78bfa"/><stop offset="100%" stop-color="#7c8cff"/></linearGradient><linearGradient id="shtxt" x1="0" y1="0" x2="1" y2="0"><stop offset="0%" stop-color="#67e8f9"/><stop offset="100%" stop-color="#c4b5fd"/></linearGradient><radialGradient id="shglowGrad" cx="50%" cy="50%" r="50%"><stop offset="0%" stop-color="#c4b5fd" stop-opacity="0.55"/><stop offset="70%" stop-color="#8b5cf6" stop-opacity="0.12"/><stop offset="100%" stop-color="#8b5cf6" stop-opacity="0"/></radialGradient><filter id="shbl"><feGaussianBlur stdDeviation="22"/></filter><filter id="shgr"><feTurbulence type="fractalNoise" baseFrequency="0.85" numOctaves="2" stitchTiles="stitch"/><feColorMatrix type="saturate" values="0"/></filter></defs><g clip-path="url(#shcp)"><rect width="360" height="150" fill="url(#shbase)"/><g filter="url(#shbl)"><g class="shb1"><circle cx="108" cy="60" r="151" fill="url(#shq1)"/></g><g class="shb2"><circle cx="259" cy="90" r="130" fill="url(#shq2)"/></g><g class="shb3"><circle cx="198" cy="48" r="94" fill="url(#shq3)"/></g></g><g class="shfg"><g class="shrot"><g transform="translate(82 75) scale(0.62)" stroke="#eef0ff" stroke-opacity="0.92" stroke-width="3.87" stroke-linejoin="round" stroke-linecap="round"><circle r="60" fill="url(#shglowGrad)" stroke="none" opacity="0" class="shglow"/><g transform="rotate(0)"><path d="M0 0 C 19 -24 19 -55 0 -72 C -19 -55 -19 -24 0 0 Z" fill="url(#shpetal)" fill-opacity="0" stroke="none" class="shfl"/><path d="M0 0 C 19 -24 19 -55 0 -72 C -19 -55 -19 -24 0 0 Z" pathLength="100" stroke-dasharray="100" stroke-dashoffset="100" fill="none" class="shd0"/></g><g transform="rotate(90)"><path d="M0 0 C 19 -24 19 -55 0 -72 C -19 -55 -19 -24 0 0 Z" fill="url(#shpetal)" fill-opacity="0" stroke="none" class="shfl"/><path d="M0 0 C 19 -24 19 -55 0 -72 C -19 -55 -19 -24 0 0 Z" pathLength="100" stroke-dasharray="100" stroke-dashoffset="100" fill="none" class="shd1"/></g><g transform="rotate(180)"><path d="M0 0 C 19 -24 19 -55 0 -72 C -19 -55 -19 -24 0 0 Z" fill="url(#shpetal)" fill-opacity="0" stroke="none" class="shfl"/><path d="M0 0 C 19 -24 19 -55 0 -72 C -19 -55 -19 -24 0 0 Z" pathLength="100" stroke-dasharray="100" stroke-dashoffset="100" fill="none" class="shd2"/></g><g transform="rotate(270)"><path d="M0 0 C 19 -24 19 -55 0 -72 C -19 -55 -19 -24 0 0 Z" fill="url(#shpetal)" fill-opacity="0" stroke="none" class="shfl"/><path d="M0 0 C 19 -24 19 -55 0 -72 C -19 -55 -19 -24 0 0 Z" pathLength="100" stroke-dasharray="100" stroke-dashoffset="100" fill="none" class="shd3"/></g></g></g><rect x="150" y="60" width="168" height="18" rx="9.0" fill="#ffffff" fill-opacity="0.16" class="sht0"/><rect x="150" y="60" width="168" height="18" rx="9.0" fill="url(#shtxt)" fill-opacity="0" class="shc0"/><rect x="150" y="90" width="84" height="13" rx="6.5" fill="#ffffff" fill-opacity="0.16" class="sht1"/><rect x="150" y="90" width="84" height="13" rx="6.5" fill="url(#shtxt)" fill-opacity="0" class="shc1"/><rect x="244" y="90" width="60" height="13" rx="6.5" fill="#ffffff" fill-opacity="0.16" class="sht2"/><rect x="244" y="90" width="60" height="13" rx="6.5" fill="url(#shtxt)" fill-opacity="0" class="shc2"/></g><rect width="360" height="150" filter="url(#shgr)" opacity="0.08" style="mix-blend-mode:overlay"/><rect x="0.75" y="0.75" width="358.5" height="148.5" rx="23.25" fill="none" stroke="#fff" stroke-opacity="0.08"/></g></svg>