<svg viewBox="0 0 240 240" width="100%" height="100%" preserveAspectRatio="xMidYMid meet" xmlns="http://www.w3.org/2000/svg" role="img" aria-label="Generating logo"><style>@keyframes ssfg{0%{opacity:0}8%{opacity:1}85%{opacity:1}95%,100%{opacity:0}}@keyframes ssrot{from{transform:rotate(0)}to{transform:rotate(16deg)}}@keyframes ssfill{0%,52%{fill-opacity:0}64%,100%{fill-opacity:.85}}@keyframes ssglow{0%,52%{opacity:0}64%,100%{opacity:.9}}@keyframes ssb1{0%,100%{transform:translate(0,0)}50%{transform:translate(38px,43px)}}@keyframes ssb2{0%,100%{transform:translate(0,0)}50%{transform:translate(-38px,-38px)}}@keyframes ssb3{0%,100%{transform:translate(0,0)}50%{transform:translate(-29px,43px)}}@keyframes ssdraw0{0%,10%{stroke-dashoffset:100}18%,100%{stroke-dashoffset:0}}@keyframes ssdraw1{0%,16%{stroke-dashoffset:100}24%,100%{stroke-dashoffset:0}}@keyframes ssdraw2{0%,22%{stroke-dashoffset:100}30%,100%{stroke-dashoffset:0}}@keyframes ssdraw3{0%,28%{stroke-dashoffset:100}36%,100%{stroke-dashoffset:0}}.ssfg{animation:ssfg 5s linear infinite}.ssrot{animation:ssrot 5s cubic-bezier(.4,0,.2,1) infinite;transform-origin:120px 120px}.ssglow{animation:ssglow 5s linear infinite}.ssfl{animation:ssfill 5s linear infinite}.ssb1{animation:ssb1 6.8s ease-in-out infinite}.ssb2{animation:ssb2 7.8s ease-in-out infinite}.ssb3{animation:ssb3 9s ease-in-out infinite}.ssd0{animation:ssdraw0 5s linear infinite}.ssd1{animation:ssdraw1 5s linear infinite}.ssd2{animation:ssdraw2 5s linear infinite}.ssd3{animation:ssdraw3 5s linear infinite}@media(prefers-reduced-motion:reduce){.ssfg,.ssrot,.ssglow,.ssfl,.ssb1,.ssb2,.ssb3,.ssd0,.ssd1,.ssd2,.ssd3{animation:none!important}.ssfg{opacity:1}.ssrot{transform:none}.ssglow{opacity:.9}.ssfl{fill-opacity:.85}.ssd0{stroke-dashoffset:0}.ssd1{stroke-dashoffset:0}.ssd2{stroke-dashoffset:0}.ssd3{stroke-dashoffset:0}}</style><defs><clipPath id="sscp"><rect width="240" height="240" rx="28"/></clipPath><radialGradient id="ssbase" cx="50%" cy="40%" r="80%"><stop offset="0%" stop-color="#161a30"/><stop offset="100%" stop-color="#0a0c16"/></radialGradient><radialGradient id="ssq1"><stop offset="0%" stop-color="#8b5cf6" stop-opacity="0.9"/><stop offset="100%" stop-color="#8b5cf6" stop-opacity="0"/></radialGradient><radialGradient id="ssq2"><stop offset="0%" stop-color="#2563eb" stop-opacity="0.8"/><stop offset="100%" stop-color="#2563eb" stop-opacity="0"/></radialGradient><radialGradient id="ssq3"><stop offset="0%" stop-color="#22d3ee" stop-opacity="0.6"/><stop offset="100%" stop-color="#22d3ee" stop-opacity="0"/></radialGradient><linearGradient id="sspetal" x1="0" y1="0" x2="1" y2="1"><stop offset="0%" stop-color="#a78bfa"/><stop offset="100%" stop-color="#7c8cff"/></linearGradient><linearGradient id="sstxt" x1="0" y1="0" x2="1" y2="0"><stop offset="0%" stop-color="#67e8f9"/><stop offset="100%" stop-color="#c4b5fd"/></linearGradient><radialGradient id="ssglowGrad" cx="50%" cy="50%" r="50%"><stop offset="0%" stop-color="#c4b5fd" stop-opacity="0.55"/><stop offset="70%" stop-color="#8b5cf6" stop-opacity="0.12"/><stop offset="100%" stop-color="#8b5cf6" stop-opacity="0"/></radialGradient><filter id="ssbl"><feGaussianBlur stdDeviation="22"/></filter><filter id="ssgr"><feTurbulence type="fractalNoise" baseFrequency="0.85" numOctaves="2" stitchTiles="stitch"/><feColorMatrix type="saturate" values="0"/></filter></defs><g clip-path="url(#sscp)"><rect width="240" height="240" fill="url(#ssbase)"/><g filter="url(#ssbl)"><g class="ssb1"><circle cx="72" cy="96" r="101" fill="url(#ssq1)"/></g><g class="ssb2"><circle cx="173" cy="144" r="86" fill="url(#ssq2)"/></g><g class="ssb3"><circle cx="132" cy="77" r="62" fill="url(#ssq3)"/></g></g><g class="ssfg"><g class="ssrot"><g transform="translate(120 120) scale(1)" stroke="#eef0ff" stroke-opacity="0.92" stroke-width="2.40" stroke-linejoin="round" stroke-linecap="round"><circle r="60" fill="url(#ssglowGrad)" stroke="none" opacity="0" class="ssglow"/><g transform="rotate(0)"><path d="M0 0 C 19 -24 19 -55 0 -72 C -19 -55 -19 -24 0 0 Z" fill="url(#sspetal)" fill-opacity="0" stroke="none" class="ssfl"/><path d="M0 0 C 19 -24 19 -55 0 -72 C -19 -55 -19 -24 0 0 Z" pathLength="100" stroke-dasharray="100" stroke-dashoffset="100" fill="none" class="ssd0"/></g><g transform="rotate(90)"><path d="M0 0 C 19 -24 19 -55 0 -72 C -19 -55 -19 -24 0 0 Z" fill="url(#sspetal)" fill-opacity="0" stroke="none" class="ssfl"/><path d="M0 0 C 19 -24 19 -55 0 -72 C -19 -55 -19 -24 0 0 Z" pathLength="100" stroke-dasharray="100" stroke-dashoffset="100" fill="none" class="ssd1"/></g><g transform="rotate(180)"><path d="M0 0 C 19 -24 19 -55 0 -72 C -19 -55 -19 -24 0 0 Z" fill="url(#sspetal)" fill-opacity="0" stroke="none" class="ssfl"/><path d="M0 0 C 19 -24 19 -55 0 -72 C -19 -55 -19 -24 0 0 Z" pathLength="100" stroke-dasharray="100" stroke-dashoffset="100" fill="none" class="ssd2"/></g><g transform="rotate(270)"><path d="M0 0 C 19 -24 19 -55 0 -72 C -19 -55 -19 -24 0 0 Z" fill="url(#sspetal)" fill-opacity="0" stroke="none" class="ssfl"/><path d="M0 0 C 19 -24 19 -55 0 -72 C -19 -55 -19 -24 0 0 Z" pathLength="100" stroke-dasharray="100" stroke-dashoffset="100" fill="none" class="ssd3"/></g></g></g></g><rect width="240" height="240" filter="url(#ssgr)" opacity="0.08" style="mix-blend-mode:overlay"/><rect x="0.75" y="0.75" width="238.5" height="238.5" rx="27.25" fill="none" stroke="#fff" stroke-opacity="0.08"/></g></svg>